<svg width="182" height="62" viewBox="0 0 182 62" fill="none" xmlns="http://www.w3.org/2000/svg">
<path d="M107.539 49H106.408L102.113 42.4258V49H100.982V40.4688H102.113L106.419 47.0723V40.4688H107.539V49ZM111.998 49.1172C111.138 49.1172 110.439 48.8359 109.9 48.2734C109.361 47.707 109.091 46.9512 109.091 46.0059V45.8066C109.091 45.1777 109.21 44.6172 109.449 44.125C109.691 43.6289 110.027 43.2422 110.457 42.9648C110.89 42.6836 111.359 42.543 111.863 42.543C112.687 42.543 113.328 42.8145 113.785 43.3574C114.242 43.9004 114.47 44.6777 114.47 45.6895V46.1406H110.175C110.191 46.7656 110.373 47.2715 110.72 47.6582C111.072 48.041 111.517 48.2324 112.056 48.2324C112.439 48.2324 112.763 48.1543 113.029 47.998C113.294 47.8418 113.527 47.6348 113.726 47.377L114.388 47.8926C113.857 48.709 113.06 49.1172 111.998 49.1172ZM111.863 43.4336C111.425 43.4336 111.058 43.5938 110.761 43.9141C110.464 44.2305 110.281 44.6758 110.21 45.25H113.386V45.168C113.355 44.6172 113.207 44.1914 112.941 43.8906C112.675 43.5859 112.316 43.4336 111.863 43.4336ZM121.343 47.5059L122.562 42.6602H123.646L121.8 49H120.921L119.38 44.1953L117.88 49H117.001L115.162 42.6602H116.24L117.488 47.4062L118.964 42.6602H119.837L121.343 47.5059ZM128.445 47.3184C128.445 47.0254 128.333 46.7988 128.111 46.6387C127.892 46.4746 127.507 46.334 126.957 46.2168C126.41 46.0996 125.974 45.959 125.65 45.7949C125.33 45.6309 125.091 45.4355 124.935 45.209C124.783 44.9824 124.707 44.7129 124.707 44.4004C124.707 43.8809 124.925 43.4414 125.363 43.082C125.804 42.7227 126.367 42.543 127.05 42.543C127.769 42.543 128.351 42.7285 128.796 43.0996C129.246 43.4707 129.47 43.9453 129.47 44.5234H128.38C128.38 44.2266 128.253 43.9707 128 43.7559C127.75 43.541 127.433 43.4336 127.05 43.4336C126.656 43.4336 126.347 43.5195 126.125 43.6914C125.902 43.8633 125.791 44.0879 125.791 44.3652C125.791 44.627 125.894 44.8242 126.101 44.957C126.308 45.0898 126.681 45.2168 127.22 45.3379C127.763 45.459 128.203 45.6035 128.539 45.7715C128.875 45.9395 129.123 46.1426 129.283 46.3809C129.447 46.6152 129.529 46.9023 129.529 47.2422C129.529 47.8086 129.302 48.2637 128.849 48.6074C128.396 48.9473 127.808 49.1172 127.085 49.1172C126.578 49.1172 126.128 49.0273 125.738 48.8477C125.347 48.668 125.041 48.418 124.818 48.0977C124.599 47.7734 124.49 47.4238 124.49 47.0488H125.574C125.593 47.4121 125.738 47.7012 126.007 47.916C126.281 48.127 126.64 48.2324 127.085 48.2324C127.496 48.2324 127.824 48.1504 128.07 47.9863C128.32 47.8184 128.445 47.5957 128.445 47.3184ZM135.992 47.4121L137.468 42.6602H138.628L136.08 49.9785C135.685 51.0332 135.058 51.5605 134.199 51.5605L133.994 51.543L133.589 51.4668V50.5879L133.882 50.6113C134.25 50.6113 134.535 50.5371 134.738 50.3887C134.945 50.2402 135.115 49.9688 135.248 49.5742L135.488 48.9297L133.226 42.6602H134.41L135.992 47.4121ZM139.22 45.7715C139.22 45.1504 139.341 44.5918 139.583 44.0957C139.83 43.5996 140.169 43.2168 140.603 42.9473C141.041 42.6777 141.539 42.543 142.097 42.543C142.96 42.543 143.658 42.8418 144.189 43.4395C144.724 44.0371 144.992 44.832 144.992 45.8242V45.9004C144.992 46.5176 144.873 47.0723 144.634 47.5645C144.4 48.0527 144.062 48.4336 143.621 48.707C143.183 48.9805 142.679 49.1172 142.109 49.1172C141.25 49.1172 140.552 48.8184 140.017 48.2207C139.486 47.623 139.22 46.832 139.22 45.8477V45.7715ZM140.31 45.9004C140.31 46.6035 140.472 47.168 140.796 47.5938C141.125 48.0195 141.562 48.2324 142.109 48.2324C142.66 48.2324 143.097 48.0176 143.421 47.5879C143.746 47.1543 143.908 46.5488 143.908 45.7715C143.908 45.0762 143.742 44.5137 143.41 44.084C143.082 43.6504 142.644 43.4336 142.097 43.4336C141.562 43.4336 141.13 43.6465 140.802 44.0723C140.474 44.498 140.31 45.1074 140.31 45.9004ZM150.265 48.373C149.843 48.8691 149.224 49.1172 148.408 49.1172C147.732 49.1172 147.216 48.9219 146.861 48.5312C146.509 48.1367 146.332 47.5547 146.328 46.7852V42.6602H147.412V46.7559C147.412 47.7168 147.802 48.1973 148.583 48.1973C149.412 48.1973 149.962 47.8887 150.236 47.2715V42.6602H151.32V49H150.289L150.265 48.373ZM156.974 42.6602L157.009 43.457C157.494 42.8477 158.126 42.543 158.908 42.543C160.248 42.543 160.923 43.2988 160.935 44.8105V49H159.851V44.8047C159.847 44.3477 159.742 44.0098 159.535 43.791C159.332 43.5723 159.013 43.4629 158.58 43.4629C158.228 43.4629 157.919 43.5566 157.654 43.7441C157.388 43.9316 157.181 44.1777 157.033 44.4824V49H155.949V42.6602H156.974ZM165.201 49.1172C164.341 49.1172 163.642 48.8359 163.103 48.2734C162.564 47.707 162.294 46.9512 162.294 46.0059V45.8066C162.294 45.1777 162.414 44.6172 162.652 44.125C162.894 43.6289 163.23 43.2422 163.66 42.9648C164.093 42.6836 164.562 42.543 165.066 42.543C165.89 42.543 166.531 42.8145 166.988 43.3574C167.445 43.9004 167.673 44.6777 167.673 45.6895V46.1406H163.378C163.394 46.7656 163.576 47.2715 163.923 47.6582C164.275 48.041 164.72 48.2324 165.259 48.2324C165.642 48.2324 165.966 48.1543 166.232 47.998C166.498 47.8418 166.73 47.6348 166.929 47.377L167.591 47.8926C167.06 48.709 166.263 49.1172 165.201 49.1172ZM165.066 43.4336C164.628 43.4336 164.261 43.5938 163.964 43.9141C163.667 44.2305 163.484 44.6758 163.414 45.25H166.589V45.168C166.558 44.6172 166.41 44.1914 166.144 43.8906C165.878 43.5859 165.519 43.4336 165.066 43.4336ZM171.564 49.1172C170.705 49.1172 170.005 48.8359 169.466 48.2734C168.927 47.707 168.658 46.9512 168.658 46.0059V45.8066C168.658 45.1777 168.777 44.6172 169.015 44.125C169.257 43.6289 169.593 43.2422 170.023 42.9648C170.457 42.6836 170.925 42.543 171.429 42.543C172.253 42.543 172.894 42.8145 173.351 43.3574C173.808 43.9004 174.037 44.6777 174.037 45.6895V46.1406H169.742C169.757 46.7656 169.939 47.2715 170.287 47.6582C170.638 48.041 171.083 48.2324 171.623 48.2324C172.005 48.2324 172.33 48.1543 172.595 47.998C172.861 47.8418 173.093 47.6348 173.292 47.377L173.955 47.8926C173.423 48.709 172.626 49.1172 171.564 49.1172ZM171.429 43.4336C170.992 43.4336 170.625 43.5938 170.328 43.9141C170.031 44.2305 169.847 44.6758 169.777 45.25H172.953V45.168C172.921 44.6172 172.773 44.1914 172.507 43.8906C172.242 43.5859 171.882 43.4336 171.429 43.4336ZM175.033 45.7773C175.033 44.8047 175.263 44.0234 175.724 43.4336C176.185 42.8398 176.789 42.543 177.535 42.543C178.277 42.543 178.865 42.7969 179.298 43.3047V40H180.382V49H179.386L179.333 48.3203C178.9 48.8516 178.296 49.1172 177.523 49.1172C176.789 49.1172 176.189 48.8164 175.724 48.2148C175.263 47.6133 175.033 46.8281 175.033 45.8594V45.7773ZM176.117 45.9004C176.117 46.6191 176.265 47.1816 176.562 47.5879C176.859 47.9941 177.269 48.1973 177.792 48.1973C178.48 48.1973 178.982 47.8887 179.298 47.2715V44.3594C178.974 43.7617 178.476 43.4629 177.804 43.4629C177.273 43.4629 176.859 43.668 176.562 44.0781C176.265 44.4883 176.117 45.0957 176.117 45.9004Z" fill="#8E9398"/>
<path d="M100.263 14.3H109.563V17.4H103.673V23.135H108.354V26.235H103.673V32.9H109.563V36H100.263V14.3Z" fill="#8CC63F"/>
<path d="M115.957 36.31C114.304 36.31 113.054 35.845 112.206 34.915C111.359 33.9643 110.935 32.6107 110.935 30.854V29.614H114.159V31.102C114.159 32.5073 114.748 33.21 115.926 33.21C116.505 33.21 116.939 33.0447 117.228 32.714C117.538 32.3627 117.693 31.8047 117.693 31.04C117.693 30.1307 117.487 29.335 117.073 28.653C116.66 27.9503 115.895 27.1133 114.779 26.142C113.374 24.902 112.392 23.786 111.834 22.794C111.276 21.7813 110.997 20.6447 110.997 19.384C110.997 17.6687 111.431 16.346 112.299 15.416C113.167 14.4653 114.428 13.99 116.081 13.99C117.714 13.99 118.944 14.4653 119.77 15.416C120.618 16.346 121.041 17.6893 121.041 19.446V20.345H117.817V19.229C117.817 18.485 117.673 17.9477 117.383 17.617C117.094 17.2657 116.67 17.09 116.112 17.09C114.976 17.09 114.407 17.7823 114.407 19.167C114.407 19.9523 114.614 20.686 115.027 21.368C115.461 22.05 116.236 22.8767 117.352 23.848C118.778 25.088 119.76 26.2143 120.297 27.227C120.835 28.2397 121.103 29.428 121.103 30.792C121.103 32.5693 120.659 33.9333 119.77 34.884C118.902 35.8347 117.631 36.31 115.957 36.31ZM123.059 14.3H128.081C129.775 14.3 131.046 14.7547 131.894 15.664C132.741 16.5733 133.165 17.9063 133.165 19.663V21.802C133.165 23.5587 132.741 24.8917 131.894 25.801C131.046 26.7103 129.775 27.165 128.081 27.165H126.469V36H123.059V14.3ZM128.081 24.065C128.639 24.065 129.052 23.91 129.321 23.6C129.61 23.29 129.755 22.763 129.755 22.019V19.446C129.755 18.702 129.61 18.175 129.321 17.865C129.052 17.555 128.639 17.4 128.081 17.4H126.469V24.065H128.081ZM139.946 36.31C138.272 36.31 136.99 35.8347 136.102 34.884C135.213 33.9333 134.769 32.59 134.769 30.854V19.446C134.769 17.71 135.213 16.3667 136.102 15.416C136.99 14.4653 138.272 13.99 139.946 13.99C141.62 13.99 142.901 14.4653 143.79 15.416C144.678 16.3667 145.123 17.71 145.123 19.446V30.854C145.123 32.59 144.678 33.9333 143.79 34.884C142.901 35.8347 141.62 36.31 139.946 36.31ZM139.946 33.21C141.124 33.21 141.713 32.497 141.713 31.071V19.229C141.713 17.803 141.124 17.09 139.946 17.09C138.768 17.09 138.179 17.803 138.179 19.229V31.071C138.179 32.497 138.768 33.21 139.946 33.21ZM147.429 14.3H152.482C154.238 14.3 155.52 14.7133 156.326 15.54C157.132 16.346 157.535 17.5963 157.535 19.291V20.624C157.535 22.8767 156.791 24.3027 155.303 24.902V24.964C156.129 25.212 156.708 25.7183 157.039 26.483C157.39 27.2477 157.566 28.2707 157.566 29.552V33.365C157.566 33.985 157.586 34.4913 157.628 34.884C157.669 35.256 157.772 35.628 157.938 36H154.466C154.342 35.6487 154.259 35.318 154.218 35.008C154.176 34.698 154.156 34.14 154.156 33.334V29.366C154.156 28.374 153.99 27.6817 153.66 27.289C153.35 26.8963 152.802 26.7 152.017 26.7H150.839V36H147.429V14.3ZM152.079 23.6C152.761 23.6 153.267 23.4243 153.598 23.073C153.949 22.7217 154.125 22.1327 154.125 21.306V19.632C154.125 18.8467 153.98 18.2783 153.691 17.927C153.422 17.5757 152.988 17.4 152.389 17.4H150.839V23.6H152.079ZM162.537 17.4H158.972V14.3H169.512V17.4H165.947V36H162.537V17.4ZM175.596 36.31C173.943 36.31 172.692 35.845 171.845 34.915C170.998 33.9643 170.574 32.6107 170.574 30.854V29.614H173.798V31.102C173.798 32.5073 174.387 33.21 175.565 33.21C176.144 33.21 176.578 33.0447 176.867 32.714C177.177 32.3627 177.332 31.8047 177.332 31.04C177.332 30.1307 177.125 29.335 176.712 28.653C176.299 27.9503 175.534 27.1133 174.418 26.142C173.013 24.902 172.031 23.786 171.473 22.794C170.915 21.7813 170.636 20.6447 170.636 19.384C170.636 17.6687 171.07 16.346 171.938 15.416C172.806 14.4653 174.067 13.99 175.72 13.99C177.353 13.99 178.582 14.4653 179.409 15.416C180.256 16.346 180.68 17.6893 180.68 19.446V20.345H177.456V19.229C177.456 18.485 177.311 17.9477 177.022 17.617C176.733 17.2657 176.309 17.09 175.751 17.09C174.614 17.09 174.046 17.7823 174.046 19.167C174.046 19.9523 174.253 20.686 174.666 21.368C175.1 22.05 175.875 22.8767 176.991 23.848C178.417 25.088 179.399 26.2143 179.936 27.227C180.473 28.2397 180.742 29.428 180.742 30.792C180.742 32.5693 180.298 33.9333 179.409 34.884C178.541 35.8347 177.27 36.31 175.596 36.31Z" fill="white"/>
<path d="M42.9366 60.7682C32.7154 60.7682 22.9587 58.9327 15.2278 55.5425C6.80917 51.8527 1.79147 46.7581 1.08528 41.1952C0.379085 35.6324 4.07731 30.2568 11.4924 26.08C18.9074 21.8844 29.1472 19.3933 40.3534 19.0374C51.541 18.7003 62.3384 20.5358 70.757 24.2257C79.1755 27.9155 84.1932 33.0101 84.8994 38.573C85.6056 44.1358 81.9074 49.5114 74.4924 53.6882C67.0773 57.865 56.8189 60.3749 45.6313 60.7308C44.7393 60.7495 43.8286 60.7682 42.9366 60.7682ZM43.0295 28.2339C42.5278 28.2339 42.026 28.2339 41.5242 28.2527C35.28 28.44 29.5747 29.8447 25.4304 32.1673C21.2862 34.5085 19.2419 37.4866 19.6322 40.5958C20.0224 43.705 22.8286 46.5333 27.5118 48.5936C37.1941 52.8454 52.0242 52.3771 60.5543 47.5635C64.6986 45.2222 66.7428 42.2441 66.3525 39.1349C65.9623 36.0257 63.1561 33.1974 58.4729 31.1371C54.1614 29.2641 48.7163 28.2339 43.0295 28.2339Z" fill="black" stroke="#8CC63F"/>
<path d="M14.706 48.0135C16.5086 47.3392 18.8502 47.4891 20.2626 48.4256C21.675 49.3621 21.3405 50.5234 19.5378 51.1977C17.7352 51.8719 15.3936 51.7221 13.9812 50.7856C12.5874 49.8491 12.9033 48.6878 14.706 48.0135ZM18.2555 50.3361C19.1847 49.9802 19.352 49.437 18.683 49.0062C18.014 48.5754 16.9175 48.5005 15.9883 48.8564C15.0591 49.2123 14.8918 49.7554 15.5609 50.1862C16.2299 50.617 17.3263 50.6919 18.2555 50.3361Z" fill="white"/>
<path d="M11.8434 43.2747C13.7947 42.9563 15.2814 43.3309 15.969 44.3611C16.6566 45.3912 15.9133 46.1217 13.962 46.4589L9.7062 47.1519L9.05576 46.1779L13.2558 45.4849C14.092 45.3538 14.3522 45.0354 14.1106 44.6608C13.869 44.2862 13.2743 44.1176 12.4566 44.2487L8.25664 44.9417L7.6062 43.9677L11.8434 43.2747Z" fill="white"/>
<path d="M8.61042 38.8354L8.68476 39.9031L14.3715 39.8094L14.4272 40.8396L8.74051 40.9332L8.81484 42.0008L6.91927 42.0383L6.71484 38.8729L8.61042 38.8354Z" fill="white"/>
<path d="M11.1558 34.1903C12.2894 34.3402 12.9398 34.771 12.8841 35.4078L16.0805 34.7522L15.4859 35.9322L12.4195 36.4754L12.3823 36.5316L14.9841 36.8687L14.4823 37.8614L7.1416 36.9249L7.97788 35.2954C8.46107 34.3589 9.66904 34.003 11.1558 34.1903ZM9.44603 36.157L10.7469 36.3256L11.0628 35.7075C11.1929 35.464 11.0814 35.258 10.6354 35.2018C10.1894 35.1456 9.89205 35.2954 9.76196 35.5389L9.44603 36.157Z" fill="white"/>
<path d="M17.7358 30.201C19.5012 30.7442 19.8729 31.5496 18.7207 32.4673C17.5871 33.3851 15.9703 33.5912 14.2048 33.048L10.3765 31.8867L11.4543 31.0064L15.2269 32.1677C15.9703 32.3924 16.6207 32.2988 17.0296 31.9616C17.4384 31.6245 17.3269 31.2873 16.5835 31.0626L12.811 29.9013L13.8889 29.021L17.7358 30.201Z" fill="white"/>
<path d="M27.399 27.8034L25.8565 28.4402L20.7273 27.8221L23.4591 29.4516L21.8795 30.1072L17.0291 27.2228L18.5715 26.5859L23.7007 27.204L20.9689 25.5745L22.5485 24.9189L27.399 27.8034Z" fill="white"/>
<path d="M43.9762 23.6455C44.1806 24.7693 42.6753 25.6683 40.3523 25.7807C38.0107 25.8931 36.2081 25.1439 36.0036 24.0201C35.7992 22.8963 37.3045 21.9972 39.6275 21.8848C41.9691 21.7912 43.7718 22.5404 43.9762 23.6455ZM38.1408 23.9264C38.2523 24.5071 39.0886 24.8629 40.1851 24.8067C41.2815 24.7506 41.9691 24.3198 41.8576 23.7579C41.7461 23.1772 40.9098 22.8214 39.8134 22.8775C38.7169 22.915 38.0293 23.3458 38.1408 23.9264Z" fill="#8CC63F"/>
<path d="M53.5845 24.9191C53.1013 25.9118 51.6889 26.3426 49.5703 26.0991C47.4517 25.8557 46.5783 25.1439 47.0429 24.1512L48.0836 21.9785L50.0907 22.222L49.0685 24.3572C48.8641 24.788 49.2544 25.0503 50.0163 25.1439C50.7969 25.2376 51.373 25.069 51.5774 24.6569L52.5995 22.5217L54.6066 22.7652L53.5845 24.9191Z" fill="#8CC63F"/>
<path d="M62.8752 25.8932L61.0168 25.3501L58.1735 27.8037L56.3894 27.298L59.2328 24.8444L57.3744 24.3012L58.3221 23.4771L63.8416 25.0504L62.8752 25.8932Z" fill="#8CC63F"/>
<path d="M69.4736 29.4142C68.6373 29.8263 67.5595 29.8637 66.4816 29.5079L65.9241 31.2123L64.2329 30.3507L64.9019 28.7774L64.8276 28.7399L62.8948 29.6764L61.4639 28.946L66.909 26.3237L69.2506 27.5225C70.5887 28.178 70.5887 28.8898 69.4736 29.4142ZM67.0019 27.6536L66.0356 28.1218L66.9462 28.5901C67.2993 28.7774 67.7081 28.8336 68.0426 28.665C68.3772 28.5152 68.2657 28.2904 67.9126 28.1218L67.0019 27.6536Z" fill="#8CC63F"/>
<path d="M72.8373 34.284C70.9975 34.7522 69.4179 34.49 68.4515 33.516C67.4665 32.5421 67.9869 31.7554 69.8267 31.3059L73.8409 30.2944L74.7701 31.2122L70.8117 32.2049C70.0311 32.3922 69.8639 32.7294 70.217 33.0665C70.5701 33.4224 71.2019 33.5348 71.9825 33.3475L75.9409 32.3548L76.8701 33.2725L72.8373 34.284Z" fill="#8CC63F"/>
<path d="M71.8332 39.6411L71.5544 38.6484L75.327 36.8129L71.1084 37.1125L70.811 36.1011L78.319 35.5767L78.5978 36.5694L74.8252 38.4049L79.0438 38.1052L79.3411 39.1167L71.8332 39.6411Z" fill="#8CC63F"/>
<path d="M70.2357 48.8376C68.21 48.3319 67.448 47.2268 68.5073 46.1779C69.548 45.129 71.7781 44.7544 73.8038 45.2601C75.8295 45.7659 76.5914 46.8709 75.5321 47.9198C74.51 48.9687 72.2613 49.3433 70.2357 48.8376ZM72.856 46.2154C71.8153 45.9532 70.756 46.1217 70.2728 46.6087C69.7896 47.0957 70.1613 47.6201 71.202 47.8824C72.2427 48.1446 73.302 47.976 73.7852 47.489C74.2684 47.002 73.8967 46.4776 72.856 46.2154Z" fill="white"/>
<path d="M63.0246 52.2275C61.575 51.497 61.575 50.6729 63.1175 49.9049C64.6599 49.137 66.3139 49.137 67.7821 49.8675L70.9599 51.4408L69.4918 52.1713L66.3697 50.6167C65.7564 50.317 65.0874 50.3357 64.5113 50.598C63.9538 50.8789 63.9166 51.2161 64.5299 51.5157L67.652 53.0703L66.1838 53.8008L63.0246 52.2275Z" fill="white"/>
<path d="M56.483 55.6552L58.3785 55.1495L55.6838 52.6584L57.4865 52.1714L60.1812 54.6625L62.0768 54.1568L62.9688 54.9809L57.3564 56.4793L56.483 55.6552Z" fill="white"/>
<path d="M46.9674 56.592C46.7258 56.0301 47.209 55.5431 48.3984 55.2809L45.7966 54.1383L48.1754 53.8761L50.5356 54.9999L50.6471 54.9812L50.071 53.6701L52.078 53.4453L53.6763 57.1352L50.3683 57.491C48.4913 57.7158 47.2834 57.3412 46.9674 56.592ZM51.2789 56.4796L51.0002 55.824L49.7365 55.9552C49.2347 56.0113 48.9188 56.1425 49.0117 56.3672C49.1046 56.592 49.5134 56.6482 50.0152 56.6107L51.2789 56.4796Z" fill="white"/>
<path d="M36.8771 55.4492C37.063 54.419 38.3267 53.8946 40.501 53.9882C42.6753 54.0819 43.7532 54.7187 43.5674 55.7301L43.1771 57.959L41.1143 57.8654L41.5045 55.6739C41.5789 55.2431 41.1143 54.9997 40.3337 54.9622C39.5346 54.9247 39.0143 55.1308 38.9214 55.5616L38.5311 57.753L36.4683 57.6593L36.8771 55.4492Z" fill="white"/>
<path d="M28.2353 52.209L30.0751 52.6023L31.2273 55.1683L32.937 53.2204L34.814 53.6325L31.7848 57.0788L29.945 56.6855L28.7928 54.1194L27.083 56.0674L25.2061 55.6553L28.2353 52.209Z" fill="white"/>
<path d="M42.9366 51.7682C32.7154 51.7682 22.9587 49.9327 15.2278 46.5425C6.80917 42.8527 1.79147 37.7581 1.08528 32.1952C0.379085 26.6324 4.07731 21.2568 11.4924 17.08C18.9074 12.8844 29.1472 10.3933 40.3534 10.0374C51.541 9.70029 62.3384 11.5358 70.757 15.2257C79.1755 18.9155 84.1932 24.0101 84.8994 29.573C85.6056 35.1358 81.9074 40.5114 74.4924 44.6882C67.0773 48.865 56.8189 51.3749 45.6313 51.7308C44.7393 51.7495 43.8286 51.7682 42.9366 51.7682ZM43.0295 19.2339C42.5278 19.2339 42.026 19.2339 41.5242 19.2527C35.28 19.44 29.5747 20.8447 25.4304 23.1673C21.2862 25.5085 19.2419 28.4866 19.6322 31.5958C20.0224 34.705 22.8286 37.5333 27.5118 39.5936C37.1941 43.8454 52.0242 43.3771 60.5543 38.5635C64.6986 36.2222 66.7428 33.2441 66.3525 30.1349C65.9623 27.0257 63.1561 24.1974 58.4729 22.1371C54.1614 20.2641 48.7163 19.2339 43.0295 19.2339Z" fill="black" stroke="#8CC63F"/>
<path d="M14.706 39.0135C16.5086 38.3392 18.8502 38.4891 20.2626 39.4256C21.675 40.3621 21.3405 41.5234 19.5378 42.1977C17.7352 42.8719 15.3936 42.7221 13.9812 41.7856C12.5874 40.8491 12.9033 39.6878 14.706 39.0135ZM18.2555 41.3361C19.1847 40.9802 19.352 40.437 18.683 40.0062C18.014 39.5754 16.9175 39.5005 15.9883 39.8564C15.0591 40.2123 14.8918 40.7554 15.5609 41.1862C16.2299 41.617 17.3263 41.6919 18.2555 41.3361Z" fill="white"/>
<path d="M11.8434 34.2747C13.7947 33.9563 15.2814 34.3309 15.969 35.3611C16.6566 36.3912 15.9133 37.1217 13.962 37.4589L9.7062 38.1519L9.05576 37.1779L13.2558 36.4849C14.092 36.3538 14.3522 36.0354 14.1106 35.6608C13.869 35.2862 13.2743 35.1176 12.4566 35.2487L8.25664 35.9417L7.6062 34.9677L11.8434 34.2747Z" fill="white"/>
<path d="M8.61042 29.8354L8.68476 30.9031L14.3715 30.8094L14.4272 31.8396L8.74051 31.9332L8.81484 33.0008L6.91927 33.0383L6.71484 29.8729L8.61042 29.8354Z" fill="white"/>
<path d="M11.1558 25.1903C12.2894 25.3402 12.9398 25.771 12.8841 26.4078L16.0805 25.7522L15.4859 26.9322L12.4195 27.4754L12.3823 27.5316L14.9841 27.8687L14.4823 28.8614L7.1416 27.9249L7.97788 26.2954C8.46107 25.3589 9.66904 25.003 11.1558 25.1903ZM9.44603 27.157L10.7469 27.3256L11.0628 26.7075C11.1929 26.464 11.0814 26.258 10.6354 26.2018C10.1894 26.1456 9.89205 26.2954 9.76196 26.5389L9.44603 27.157Z" fill="white"/>
<path d="M17.7358 21.201C19.5012 21.7442 19.8729 22.5496 18.7207 23.4673C17.5871 24.3851 15.9703 24.5912 14.2048 24.048L10.3765 22.8867L11.4543 22.0064L15.2269 23.1677C15.9703 23.3924 16.6207 23.2988 17.0296 22.9616C17.4384 22.6245 17.3269 22.2873 16.5835 22.0626L12.811 20.9013L13.8889 20.021L17.7358 21.201Z" fill="white"/>
<path d="M27.399 18.8034L25.8565 19.4402L20.7273 18.8221L23.4591 20.4516L21.8795 21.1072L17.0291 18.2228L18.5715 17.5859L23.7007 18.204L20.9689 16.5745L22.5485 15.9189L27.399 18.8034Z" fill="white"/>
<path d="M43.9762 14.6455C44.1806 15.7693 42.6753 16.6683 40.3523 16.7807C38.0107 16.8931 36.2081 16.1439 36.0036 15.0201C35.7992 13.8963 37.3045 12.9972 39.6275 12.8848C41.9691 12.7912 43.7718 13.5404 43.9762 14.6455ZM38.1408 14.9264C38.2523 15.5071 39.0886 15.8629 40.1851 15.8067C41.2815 15.7506 41.9691 15.3198 41.8576 14.7579C41.7461 14.1772 40.9098 13.8214 39.8134 13.8775C38.7169 13.915 38.0293 14.3458 38.1408 14.9264Z" fill="#8CC63F"/>
<path d="M53.5845 15.9191C53.1013 16.9118 51.6889 17.3426 49.5703 17.0991C47.4517 16.8557 46.5783 16.1439 47.0429 15.1512L48.0836 12.9785L50.0907 13.222L49.0685 15.3572C48.8641 15.788 49.2544 16.0503 50.0163 16.1439C50.7969 16.2376 51.373 16.069 51.5774 15.6569L52.5995 13.5217L54.6066 13.7652L53.5845 15.9191Z" fill="#8CC63F"/>
<path d="M62.8752 16.8932L61.0168 16.3501L58.1735 18.8037L56.3894 18.298L59.2328 15.8444L57.3744 15.3012L58.3221 14.4771L63.8416 16.0504L62.8752 16.8932Z" fill="#8CC63F"/>
<path d="M69.4736 20.4142C68.6373 20.8263 67.5595 20.8637 66.4816 20.5079L65.9241 22.2123L64.2329 21.3507L64.9019 19.7774L64.8276 19.7399L62.8948 20.6764L61.4639 19.946L66.909 17.3237L69.2506 18.5225C70.5887 19.178 70.5887 19.8898 69.4736 20.4142ZM67.0019 18.6536L66.0356 19.1218L66.9462 19.5901C67.2993 19.7774 67.7081 19.8336 68.0426 19.665C68.3772 19.5152 68.2657 19.2904 67.9126 19.1218L67.0019 18.6536Z" fill="#8CC63F"/>
<path d="M72.8373 25.284C70.9975 25.7522 69.4179 25.49 68.4515 24.516C67.4665 23.5421 67.9869 22.7554 69.8267 22.3059L73.8409 21.2944L74.7701 22.2122L70.8117 23.2049C70.0311 23.3922 69.8639 23.7294 70.217 24.0665C70.5701 24.4224 71.2019 24.5348 71.9825 24.3475L75.9409 23.3548L76.8701 24.2725L72.8373 25.284Z" fill="#8CC63F"/>
<path d="M71.8332 30.6411L71.5544 29.6484L75.327 27.8129L71.1084 28.1125L70.811 27.1011L78.319 26.5767L78.5978 27.5694L74.8252 29.4049L79.0438 29.1052L79.3411 30.1167L71.8332 30.6411Z" fill="#8CC63F"/>
<path d="M70.2357 39.8376C68.21 39.3319 67.448 38.2268 68.5073 37.1779C69.548 36.129 71.7781 35.7544 73.8038 36.2601C75.8295 36.7659 76.5914 37.8709 75.5321 38.9198C74.51 39.9687 72.2613 40.3433 70.2357 39.8376ZM72.856 37.2154C71.8153 36.9532 70.756 37.1217 70.2728 37.6087C69.7896 38.0957 70.1613 38.6201 71.202 38.8824C72.2427 39.1446 73.302 38.976 73.7852 38.489C74.2684 38.002 73.8967 37.4776 72.856 37.2154Z" fill="white"/>
<path d="M63.0246 43.2275C61.575 42.497 61.575 41.6729 63.1175 40.9049C64.6599 40.137 66.3139 40.137 67.7821 40.8675L70.9599 42.4408L69.4918 43.1713L66.3697 41.6167C65.7564 41.317 65.0874 41.3357 64.5113 41.598C63.9538 41.8789 63.9166 42.2161 64.5299 42.5157L67.652 44.0703L66.1838 44.8008L63.0246 43.2275Z" fill="white"/>
<path d="M56.483 46.6552L58.3785 46.1495L55.6838 43.6584L57.4865 43.1714L60.1812 45.6625L62.0768 45.1568L62.9688 45.9809L57.3564 47.4793L56.483 46.6552Z" fill="white"/>
<path d="M46.9674 47.592C46.7258 47.0301 47.209 46.5431 48.3984 46.2809L45.7966 45.1383L48.1754 44.8761L50.5356 45.9999L50.6471 45.9812L50.071 44.6701L52.078 44.4453L53.6763 48.1352L50.3683 48.491C48.4913 48.7158 47.2834 48.3412 46.9674 47.592ZM51.2789 47.4796L51.0002 46.824L49.7365 46.9552C49.2347 47.0113 48.9188 47.1425 49.0117 47.3672C49.1046 47.592 49.5134 47.6482 50.0152 47.6107L51.2789 47.4796Z" fill="white"/>
<path d="M36.8771 46.4492C37.063 45.419 38.3267 44.8946 40.501 44.9882C42.6753 45.0819 43.7532 45.7187 43.5674 46.7301L43.1771 48.959L41.1143 48.8654L41.5045 46.6739C41.5789 46.2431 41.1143 45.9997 40.3337 45.9622C39.5346 45.9247 39.0143 46.1308 38.9214 46.5616L38.5311 48.753L36.4683 48.6593L36.8771 46.4492Z" fill="white"/>
<path d="M28.2353 43.209L30.0751 43.6023L31.2273 46.1683L32.937 44.2204L34.814 44.6325L31.7848 48.0788L29.945 47.6855L28.7928 45.1194L27.083 47.0674L25.2061 46.6553L28.2353 43.209Z" fill="white"/>
<path d="M42.9366 42.7682C32.7154 42.7682 22.9587 40.9327 15.2278 37.5425C6.80917 33.8527 1.79147 28.7581 1.08528 23.1952C0.379085 17.6324 4.07731 12.2568 11.4924 8.07997C18.9074 3.88442 29.1472 1.39331 40.3534 1.03743C51.541 0.700291 62.3384 2.53585 70.757 6.22569C79.1755 9.91553 84.1932 15.0101 84.8994 20.573C85.6056 26.1358 81.9074 31.5114 74.4924 35.6882C67.0773 39.865 56.8189 42.3749 45.6313 42.7308C44.7393 42.7495 43.8286 42.7682 42.9366 42.7682ZM43.0295 10.2339C42.5278 10.2339 42.026 10.2339 41.5242 10.2527C35.28 10.44 29.5747 11.8447 25.4304 14.1673C21.2862 16.5085 19.2419 19.4866 19.6322 22.5958C20.0224 25.705 22.8286 28.5333 27.5118 30.5936C37.1941 34.8454 52.0242 34.3771 60.5543 29.5635C64.6986 27.2222 66.7428 24.2441 66.3525 21.1349C65.9623 18.0257 63.1561 15.1974 58.4729 13.1371C54.1614 11.2641 48.7163 10.2339 43.0295 10.2339Z" fill="black" stroke="#8CC63F"/>
<path d="M14.706 30.0135C16.5086 29.3392 18.8502 29.4891 20.2626 30.4256C21.675 31.3621 21.3405 32.5234 19.5378 33.1977C17.7352 33.8719 15.3936 33.7221 13.9812 32.7856C12.5874 31.8491 12.9033 30.6878 14.706 30.0135ZM18.2555 32.3361C19.1847 31.9802 19.352 31.437 18.683 31.0062C18.014 30.5754 16.9175 30.5005 15.9883 30.8564C15.0591 31.2123 14.8918 31.7554 15.5609 32.1862C16.2299 32.617 17.3263 32.6919 18.2555 32.3361Z" fill="white"/>
<path d="M11.8434 25.2747C13.7947 24.9563 15.2814 25.3309 15.969 26.3611C16.6566 27.3912 15.9133 28.1217 13.962 28.4589L9.7062 29.1519L9.05576 28.1779L13.2558 27.4849C14.092 27.3538 14.3522 27.0354 14.1106 26.6608C13.869 26.2862 13.2743 26.1176 12.4566 26.2487L8.25664 26.9417L7.6062 25.9677L11.8434 25.2747Z" fill="white"/>
<path d="M8.61042 20.8354L8.68476 21.9031L14.3715 21.8094L14.4272 22.8396L8.74051 22.9332L8.81484 24.0008L6.91927 24.0383L6.71484 20.8729L8.61042 20.8354Z" fill="white"/>
<path d="M11.1558 16.1903C12.2894 16.3402 12.9398 16.771 12.8841 17.4078L16.0805 16.7522L15.4859 17.9322L12.4195 18.4754L12.3823 18.5316L14.9841 18.8687L14.4823 19.8614L7.1416 18.9249L7.97788 17.2954C8.46107 16.3589 9.66904 16.003 11.1558 16.1903ZM9.44603 18.157L10.7469 18.3256L11.0628 17.7075C11.1929 17.464 11.0814 17.258 10.6354 17.2018C10.1894 17.1456 9.89205 17.2954 9.76196 17.5389L9.44603 18.157Z" fill="white"/>
<path d="M17.7358 12.201C19.5012 12.7442 19.8729 13.5496 18.7207 14.4673C17.5871 15.3851 15.9703 15.5912 14.2048 15.048L10.3765 13.8867L11.4543 13.0064L15.2269 14.1677C15.9703 14.3924 16.6207 14.2988 17.0296 13.9616C17.4384 13.6245 17.3269 13.2873 16.5835 13.0626L12.811 11.9013L13.8889 11.021L17.7358 12.201Z" fill="white"/>
<path d="M27.399 9.80339L25.8565 10.4402L20.7273 9.82212L23.4591 11.4516L21.8795 12.1072L17.0291 9.22275L18.5715 8.58593L23.7007 9.20402L20.9689 7.5745L22.5485 6.91895L27.399 9.80339Z" fill="white"/>
<path d="M43.9762 5.64548C44.1806 6.76929 42.6753 7.66834 40.3523 7.78072C38.0107 7.8931 36.2081 7.14389 36.0036 6.02008C35.7992 4.89627 37.3045 3.99722 39.6275 3.88484C41.9691 3.79119 43.7718 4.5404 43.9762 5.64548ZM38.1408 5.92643C38.2523 6.50707 39.0886 6.86294 40.1851 6.80675C41.2815 6.75056 41.9691 6.31976 41.8576 5.75786C41.7461 5.17722 40.9098 4.82135 39.8134 4.87754C38.7169 4.915 38.0293 5.3458 38.1408 5.92643Z" fill="#8CC63F"/>
<path d="M53.5845 6.91915C53.1013 7.91185 51.6889 8.34264 49.5703 8.09915C47.4517 7.85566 46.5783 7.14391 47.0429 6.15121L48.0836 3.97852L50.0907 4.22201L49.0685 6.35724C48.8641 6.78804 49.2544 7.05026 50.0163 7.14391C50.7969 7.23756 51.373 7.06899 51.5774 6.65693L52.5995 4.52169L54.6066 4.76518L53.5845 6.91915Z" fill="#8CC63F"/>
<path d="M62.8752 7.89324L61.0168 7.35007L58.1735 9.80372L56.3894 9.298L59.2328 6.84435L57.3744 6.30118L58.3221 5.47705L63.8416 7.05038L62.8752 7.89324Z" fill="#8CC63F"/>
<path d="M69.4736 11.4142C68.6373 11.8263 67.5595 11.8637 66.4816 11.5079L65.9241 13.2123L64.2329 12.3507L64.9019 10.7774L64.8276 10.7399L62.8948 11.6764L61.4639 10.946L66.909 8.32373L69.2506 9.52246C70.5887 10.178 70.5887 10.8898 69.4736 11.4142ZM67.0019 9.65357L66.0356 10.1218L66.9462 10.5901C67.2993 10.7774 67.7081 10.8336 68.0426 10.665C68.3772 10.5152 68.2657 10.2904 67.9126 10.1218L67.0019 9.65357Z" fill="#8CC63F"/>
<path d="M72.8373 16.284C70.9975 16.7522 69.4179 16.49 68.4515 15.516C67.4665 14.5421 67.9869 13.7554 69.8267 13.3059L73.8409 12.2944L74.7701 13.2122L70.8117 14.2049C70.0311 14.3922 69.8639 14.7294 70.217 15.0665C70.5701 15.4224 71.2019 15.5348 71.9825 15.3475L75.9409 14.3548L76.8701 15.2725L72.8373 16.284Z" fill="#8CC63F"/>
<path d="M71.8332 21.6411L71.5544 20.6484L75.327 18.8129L71.1084 19.1125L70.811 18.1011L78.319 17.5767L78.5978 18.5694L74.8252 20.4049L79.0438 20.1052L79.3411 21.1167L71.8332 21.6411Z" fill="#8CC63F"/>
<path d="M70.2357 30.8376C68.21 30.3319 67.448 29.2268 68.5073 28.1779C69.548 27.129 71.7781 26.7544 73.8038 27.2601C75.8295 27.7659 76.5914 28.8709 75.5321 29.9198C74.51 30.9687 72.2613 31.3433 70.2357 30.8376ZM72.856 28.2154C71.8153 27.9532 70.756 28.1217 70.2728 28.6087C69.7896 29.0957 70.1613 29.6201 71.202 29.8824C72.2427 30.1446 73.302 29.976 73.7852 29.489C74.2684 29.002 73.8967 28.4776 72.856 28.2154Z" fill="white"/>
<path d="M63.0246 34.2275C61.575 33.497 61.575 32.6729 63.1175 31.9049C64.6599 31.137 66.3139 31.137 67.7821 31.8675L70.9599 33.4408L69.4918 34.1713L66.3697 32.6167C65.7564 32.317 65.0874 32.3357 64.5113 32.598C63.9538 32.8789 63.9166 33.2161 64.5299 33.5157L67.652 35.0703L66.1838 35.8008L63.0246 34.2275Z" fill="white"/>
<path d="M56.483 37.6552L58.3785 37.1495L55.6838 34.6584L57.4865 34.1714L60.1812 36.6625L62.0768 36.1568L62.9688 36.9809L57.3564 38.4793L56.483 37.6552Z" fill="white"/>
<path d="M46.9674 38.592C46.7258 38.0301 47.209 37.5431 48.3984 37.2809L45.7966 36.1383L48.1754 35.8761L50.5356 36.9999L50.6471 36.9812L50.071 35.6701L52.078 35.4453L53.6763 39.1352L50.3683 39.491C48.4913 39.7158 47.2834 39.3412 46.9674 38.592ZM51.2789 38.4796L51.0002 37.824L49.7365 37.9552C49.2347 38.0113 48.9188 38.1425 49.0117 38.3672C49.1046 38.592 49.5134 38.6482 50.0152 38.6107L51.2789 38.4796Z" fill="white"/>
<path d="M36.8771 37.4492C37.063 36.419 38.3267 35.8946 40.501 35.9882C42.6753 36.0819 43.7532 36.7187 43.5674 37.7301L43.1771 39.959L41.1143 39.8654L41.5045 37.6739C41.5789 37.2431 41.1143 36.9997 40.3337 36.9622C39.5346 36.9247 39.0143 37.1308 38.9214 37.5616L38.5311 39.753L36.4683 39.6593L36.8771 37.4492Z" fill="white"/>
<path d="M28.2353 34.209L30.0751 34.6023L31.2273 37.1683L32.937 35.2204L34.814 35.6325L31.7848 39.0788L29.945 38.6855L28.7928 36.1194L27.083 38.0674L25.2061 37.6553L28.2353 34.209Z" fill="white"/>
</svg>
