<svg width="24" height="20" viewBox="0 0 24 20" fill="none" xmlns="http://www.w3.org/2000/svg">
<path d="M0.105779 17.4497C0.115659 17.4524 0.125702 17.4546 0.135919 17.4553C0.705089 17.4967 1.27426 17.4963 1.84343 17.4542C2.47445 17.4046 3.09838 17.2913 3.71522 17.1213C4.72201 16.845 5.6579 16.4129 6.53707 15.8391C6.79029 15.6704 6.67548 15.3058 6.37647 15.2495C5.62976 15.1091 4.9516 14.8188 4.33914 14.3586C3.73215 13.9076 3.25424 13.3543 2.91094 12.6902C2.73679 12.3533 3.04452 11.9928 3.42372 11.9985C3.71916 12.0029 4.01113 11.9802 4.30115 11.9314C4.54195 11.8908 4.55875 11.7599 4.33534 11.6614C3.64247 11.3557 2.18123 10.6612 1.49601 9.41403C1.05642 8.67023 0.857902 7.85559 0.836631 6.99136C0.829541 6.86385 0.907532 6.93469 0.942983 6.95594C1.42511 7.21804 1.94269 7.37389 2.48154 7.46598C2.65184 7.4932 2.74331 7.26008 2.61782 7.14176C0.939974 5.55987 0.498182 3.71831 1.2329 1.5831C1.34908 1.24546 1.77597 1.17592 2.01539 1.44083C2.13713 1.57552 2.25775 1.70687 2.38227 1.83432C3.14091 2.62063 3.99173 3.30776 4.92053 3.89572C6.12585 4.66077 7.40916 5.23456 8.78464 5.60292C9.70635 5.85086 10.6352 6.0067 11.5923 6.07046C11.7767 6.08463 11.7908 6.01379 11.7696 5.86503C11.4505 3.98781 12.0106 2.40811 13.4357 1.16135C14.4355 0.290041 15.6337 -0.0783187 16.9666 0.0137713C18.2074 0.0987774 19.2567 0.573395 20.1359 1.45179C20.2281 1.54388 20.3131 1.55097 20.4337 1.52263C21.3837 1.31012 22.2913 0.984258 23.1421 0.502556C23.225 0.450788 23.327 0.548551 23.2912 0.639479C23.1028 1.11744 22.8601 1.54102 22.5643 1.91798C22.2785 2.28213 22.5365 2.87047 22.9787 2.73387C23.0827 2.70176 23.1866 2.66779 23.2905 2.63214C23.5556 2.54121 23.7508 2.77104 23.5746 2.98899C23.0428 3.64778 22.4544 4.24283 21.7666 4.7387C21.639 4.83079 21.5894 4.92996 21.5965 5.09289C21.639 6.46007 21.4759 7.79892 21.1214 9.11651C20.6109 11.015 19.7672 12.7505 18.569 14.3161C17.6685 15.492 16.6121 16.4908 15.3855 17.3196C14.4496 17.9501 13.4428 18.4601 12.3722 18.8285C11.3796 19.1756 10.3657 19.4023 9.32349 19.5298C8.33087 19.6502 7.33826 19.6644 6.35273 19.5935C5.09069 19.5014 3.86411 19.2322 2.68006 18.8001C1.77253 18.4743 0.907534 18.0492 0.0850821 17.5463C0.0353749 17.509 0.0390169 17.4333 0.0993652 17.448C0.10151 17.4486 0.103649 17.4491 0.105779 17.4497Z" fill="white"/>
</svg>
